<svg xmlns="http://www.w3.org/2000/svg" viewBox="0 0 100 100">
  <defs>
    <linearGradient id="gc1" x1="0.15" y1="0" x2="0.8" y2="1">
      <stop offset="0" stop-color="#f2f8ff"></stop><stop offset="0.45" stop-color="#b6d6f9"></stop><stop offset="1" stop-color="#588ce3"></stop>
    </linearGradient>
    <linearGradient id="gc2" x1="0" y1="0" x2="0" y2="1">
      <stop offset="0" stop-color="#ffffff" stop-opacity="0.85"></stop><stop offset="1" stop-color="#ffffff" stop-opacity="0.05"></stop>
    </linearGradient>
    <radialGradient id="gcGlow" cx="0.5" cy="0.42" r="0.62">
      <stop offset="0" stop-color="#c4dcfa" stop-opacity="0.9"></stop><stop offset="1" stop-color="#c4dcfa" stop-opacity="0"></stop>
    </radialGradient>
  </defs>
  <circle cx="50" cy="50" r="48" fill="url(#gcGlow)"></circle>
  <polygon points="50,10 84.6,30 84.6,70 50,90 15.4,70 15.4,30" fill="url(#gc1)"></polygon>
  <path d="M15.35898384862245,30.000000000000004 L50,10 L84.64101615137756,30.000000000000004 L50,50 Z" fill="url(#gc2)"></path>
  <path d="M15.35898384862245,70 L50,50 L84.64101615137756,70 L50,90 Z" fill="#3f6fc4" opacity="0.35"></path>
  <g stroke="#ffffff" stroke-opacity="0.7" stroke-width="1.1" stroke-linejoin="round" fill="none">
    <polygon points="50,10 84.6,30 84.6,70 50,90 15.4,70 15.4,30"></polygon>
    <path d="M15.35898384862245,30.000000000000004 L50,50 L84.64101615137756,30.000000000000004 M50,50 L50,90"></path>
  </g>
  <polygon points="33,23 34.1,26.9 38,28 34.1,29.1 33,33 31.9,29.1 28,28 31.9,26.9" fill="#ffffff" fill-opacity="0.95"></polygon>
  <polygon points="64,57 64.66,59.34 67,60 64.66,60.66 64,63 63.34,60.66 61,60 63.34,59.34" fill="#ffffff" fill-opacity="0.75"></polygon>
</svg>